<svg id="Слой_2" data-name="Слой 2" xmlns="http://www.w3.org/2000/svg" viewBox="0 0 164 32.75"><defs><style>.cls-1{fill:#fff;}</style></defs><title>1footer-logo</title><path class="cls-1" d="M79.83,24.28h4.36a9.52,9.52,0,0,1-3.66,5.57,11.08,11.08,0,0,1-6.79,2A9.71,9.71,0,0,1,66,28.64q-2.79-3.14-2.79-9c0-3.72.9-6.63,2.7-8.71a9.69,9.69,0,0,1,7.75-3.22q5.23,0,8.1,3.13A11.91,11.91,0,0,1,84,15.31H77.91A5,5,0,0,0,77,14a4.21,4.21,0,0,0-3.22-1.22A4.27,4.27,0,0,0,70.68,14q-1.56,1.74-1.57,5.75c0,2.67.52,4.56,1.57,5.66a4.12,4.12,0,0,0,3.4,1.4,4.93,4.93,0,0,0,2.52-.61,1.42,1.42,0,0,0,.48-.31l.48-.49a4,4,0,0,1,.7-.69,2.42,2.42,0,0,1,1.57-.44ZM35.47,31.43V6.78h8.88V4.59a3,3,0,0,0-.91-2.22,3.06,3.06,0,0,0-2.22-.92H20.49V6.78h8.8V31.43ZM101,14.79A4.16,4.16,0,0,0,97.46,13a4.4,4.4,0,0,0-3.75,1.74,7.78,7.78,0,0,0-1.31,4.79V31.43H86.48v-30h3a3,3,0,0,1,3,3V11.3A6.91,6.91,0,0,1,96.85,8a8.76,8.76,0,0,1,5.48.35,9.8,9.8,0,0,1,4.1,3.31,10.49,10.49,0,0,1,1.65,6.28v13.5h-5.84v-12A12.5,12.5,0,0,0,102,17a6.07,6.07,0,0,0-1-2.23Zm-44.54,9.5h4.35a9.52,9.52,0,0,1-3.66,5.57,11.08,11.08,0,0,1-6.79,2,9.71,9.71,0,0,1-7.75-3.22q-2.79-3.14-2.79-9c0-3.72.9-6.63,2.7-8.71A9.7,9.7,0,0,1,50.3,7.73q5.22,0,8.1,3.13t2.79,9v1a1.47,1.47,0,0,1-.09.61H46a6,6,0,0,0,1.31,4,4.11,4.11,0,0,0,3.4,1.4,4.89,4.89,0,0,0,2.52-.61,1.38,1.38,0,0,0,.49-.31l.48-.49a1.92,1.92,0,0,1,.66-.69,2.61,2.61,0,0,1,1.61-.44ZM46,17.48h8.88A5.65,5.65,0,0,0,53.69,14a4.21,4.21,0,0,0-3.23-1.22A4.26,4.26,0,0,0,47.34,14,5,5,0,0,0,46,17.48Z"/><path class="cls-1" d="M138.75,31.43V20.18a14.31,14.31,0,0,1,1-5.7,9.5,9.5,0,0,1,2.74-3.7,10.58,10.58,0,0,1,3.87-1.91,16.88,16.88,0,0,1,4.58-.61h.87v6.18h-2a5.13,5.13,0,0,0-3.75,1.22,5.22,5.22,0,0,0-1.22,3.83V31.43ZM13.36,1.46h3.87V6.77H10.92v-3q0-2.33,2.44-2.33ZM1.27,25.17H7.68v6.25H1.27V25.17ZM3.71,9.32h4v6.41H1.27v-4A2.16,2.16,0,0,1,3.71,9.32Zm7.21,0h6.32v22.1H10.92V9.32Zm152,22.1a44.78,44.78,0,0,1-6.23-.1q-3.35-.25-3.35-4.27V1.46h3.13a2.77,2.77,0,0,1,2,.87,2.86,2.86,0,0,1,.87,2.09V8.35h3.57v3.1a2.81,2.81,0,0,1-.87,2.13,2.94,2.94,0,0,1-2.09.83h-.61V24.78c0,1,.58,1.49,1.75,1.49,1.47,0,1.83.55,1.83,1.81v3.35Zm-40.68-30h4.88l10.88,30h-6.52l-2-6.18H117.81l-1.92,6.18h-6.53l9.93-28a2.93,2.93,0,0,1,3-2Zm1.4,6-4.18,12.72h8.36L123.64,7.46Z"/></svg>